#!OML:ASF E:/inclinewalkrobotboard/Project1/Captureday1/Session1/subject1.ASF
:FULLY-SPECIFIED
:DEGREES
340
root 0 0 0 -2.125433857481168 -3.762188829368087 0.49581794853093325
lowerback 7.613318717543266 1.5899126301624098 -2.532402068012226
upperback 1.8725550166342502 1.970741577881636 -0.057696404094651044
thorax -2.363437903733179 1.0358731654438351 1.2467952071395447
lowerneck -9.332200264722893 -5.528894754380185 -6.420368367324814
upperneck 30.99752410555856 -8.644308645109634 6.107486051374732
head 11.602012267071816 -3.9428392301849087 2.0367901835215325
rclavicle -1.4458175915209328E-15 1.4324859121301213E-15
rhumerus -8.490914719265671 2.0336181798320268 -79.6731474292742
rradius 49.010016079927205
rwrist -20.74055826117906
rhand -42.05335921702504 16.15698251150007
rfingers 7.125019999999944
rthumb -14.89310724008137 -13.253976268661877
lclavicle -5.7841496125657906E-15 1.0114547430540758E-15
lhumerus -30.887715468586247 11.883360610655354 77.21336995710207
lradius 24.819375933703782
lwrist -4.779593447015299
lhand -24.384176700463705 21.827491110862923
lfingers 7.125019999999956
lthumb 2.109277726532136 51.76840735379443
rfemur -4.8471872590951905 8.042449527773261 33.758959632035506
rtibia 32.57667961035723
rfoot -16.971771661797177 -9.480566839008894
rtoes 4.506862211436694
lfemur -29.253668908904437 1.3846027476947373 -14.842959067228481
ltibia 42.018252206502936
lfoot -3.3302805853324973 -6.40696969450139
ltoes -3.657494654672279
341
root 0 0 0 -2.1426131613117803 -3.7931760444340394 0.49171726904379803
lowerback 7.608666009205582 1.5784854183200134 -2.5297908923146446
upperback 1.8540097852238109 1.9563427257720964 -0.05054357130469023
thorax -2.3808047770804954 1.0281838808408534 1.2554003033162253
lowerneck -9.36380371301847 -5.519561932647234 -6.394824679310355
upperneck 31.05849911955807 -8.635562874476427 6.068014583346543
head 11.62008911678779 -3.938295620703321 2.021634529499124
rclavicle -1.3977267919302144E-15 1.374138699824072E-15
rhumerus -8.175166662267628 1.6801761792291035 -79.58180988779098
rradius 48.6636185364517
rwrist -20.646137722996237
rhand -42.04973675187046 16.24020074327926
rfingers 7.125019999999942
rthumb -14.887081524615663 -13.168802693190585
lclavicle -5.752512644695513E-15 8.882904969901385E-16
lhumerus -30.7915307296856 11.812147850451826 77.3742608149907
lradius 24.874096707116387
lwrist -4.700749137873559
lhand -24.351083786421732 21.836818287947157
lfingers 7.125019999999955
lthumb 2.1408711133798097 51.777346118822976
rfemur -8.14939896575489 7.895938662828793 33.35151342195616
rtibia 34.53830955670779
rfoot -15.56893798747788 -9.677839903984975
rtoes 5.076561602638579
lfemur -28.00838463529224 1.7173247359359056 -15.290004538847864
ltibia 44.23920785361952
lfoot -3.091898351329416 -7.178902781740584
ltoes -3.7329498523590168
342
root 0 0 0 -2.1673117044389807 -3.8332858981384588 0.48695980688264634
lowerback 7.593694950532954 1.5652048088583266 -2.5256836994098166
upperback 1.8319918534388693 1.9398035545724064 -0.043068864949500574
thorax -2.3955717742174403 1.0193916575935829 1.2639240985963425
lowerneck -9.39296632720007 -5.508115994909214 -6.365922313249683
upperneck 31.13270412627246 -8.626326534890744 6.017558718130572
head 11.641540008271889 -3.933423371917686 2.001761748047755
rclavicle -1.4177158022982181E-15 1.3189723050230748E-15
rhumerus -7.869709087504287 1.362800945489135 -79.4828812949341
rradius 48.39121966264477
rwrist -20.57336209536777
rhand -42.03319843943757 16.290822838995826
rfingers 7.125019999999941
rthumb -14.869301218500228 -13.116885905220094
lclavicle -5.760273345427293E-15 7.566692055348513E-16
lhumerus -30.67975198048183 11.7207124847758 77.56457771882366
lradius 24.933996119795314
lwrist -4.614546120468237
lhand -24.30029200043238 21.85321663103047
lfingers 7.125019999999954
lthumb 2.1893969118435113 51.79313342195009
rfemur -11.470445859741599 7.7374602154552194 32.98205209377932
rtibia 36.465961853687794
rfoot -14.162237628919494 -9.798327442606753
rtoes 5.6816839264507735
lfemur -26.63729822569253 2.127400982894999 -15.675531788424221
ltibia 47.12640911982517
lfoot -2.8698426022298005 -7.913611570898974
ltoes -4.01666872262913
343
root 0 0 0 -2.199668979559386 -3.878575342826291 0.48121753368204273
lowerback 7.566948569582352 1.5513347945885634 -2.5193649374969405
upperback 1.8058773557286187 1.922868950076932 -0.0360712725295792
thorax -2.4074659148325384 1.0103286543348817 1.2707290541774343
lowerneck -9.421759204689778 -5.494842429184006 -6.335011868410971
upperneck 31.214097059174378 -8.616370162387232 5.957275614751092
head 11.665119823451045 -3.928007657835609 1.977702261348166
rclavicle -1.5289455708771784E-15 1.2832247113254846E-15
rhumerus -7.621123369611748 1.1298043051643094 -79.39232669173609
rradius 48.23968544069395
rwrist -20.53753663429547
rhand -42.00756705077106 16.293657402145463
rfingers 7.12501999999994
rthumb -14.843951305265243 -13.113434420496946
lclavicle -5.812965195216156E-15 6.423983408722142E-16
lhumerus -30.56426822784323 11.616310512763693 77.76493579354927
lradius 24.98926713348725
lwrist -4.535258551759743
lhand -24.23028247949234 21.87714142347252
lfingers 7.125019999999952
lthumb 2.2563511536619543 51.81622899238885
rfemur -14.072695095612398 7.5911013753979875 32.765747514657875
rtibia 37.920158436532304
rfoot -13.091473795636661 -9.785374362219315
rtoes 6.288348997999307
lfemur -25.426435381684232 2.553772146454383 -15.868660783710396
ltibia 50.37106486309113
lfoot -2.6873346066118433 -8.395917882946636
ltoes -4.487460112612886
344
root 0 0 0 -2.2358892766665788 -3.919587102013806 0.4749113641028189
lowerback 7.528951793757193 1.5398443153541654 -2.510238333309892
upperback 1.7788626906164509 1.9095004332260639 -0.030848461540197825
thorax -2.4133420845812594 1.0030288242779626 1.273536330886723
lowerneck -9.44685081974274 -5.480946933218447 -6.306270477010274
upperneck 31.289770520718882 -8.606115840121197 5.894262621799842
head 11.687423232450971 -3.922293913440463 1.9523551680618354
rclavicle -1.730017755473715E-15 1.2753271738062995E-15
rhumerus -7.508075142511817 1.0582902115242683 -79.33701503674652
rradius 48.26996294675434
rwrist -20.5601826179091
rhand -41.97687572260788 16.232578995392434
rfingers 7.125019999999939
rthumb -14.815452130211838 -13.174895924741385
lclavicle -5.900650925601772E-15 5.6649415706034445E-16
lhumerus -30.4630844724852 11.512102817807772 77.94575593436552
lradius 25.028892039318865
lwrist -4.478640857068136
lhand -24.146109319425623 21.90702398668897
lfingers 7.125019999999951
lthumb 2.336969023688656 51.84511783101612
rfemur -15.469025753242118 7.500585013066204 32.71600754509088
rtibia 38.485597129988975
rfoot -12.61068721707916 -9.676298150475148
rtoes 6.821182212353037
lfemur -24.6764633881916 2.94610838244831 -15.745983410598983
ltibia 53.577756848256946
lfoot -2.632437834669954 -8.430669915548956
ltoes -5.103432172352831
